<?xml version="1.0" encoding="utf-8"?>
<!-- Generator: Adobe Illustrator 22.0.0, SVG Export Plug-In . SVG Version: 6.00 Build 0)  -->
<svg version="1.1" id="Capa_1" xmlns="http://www.w3.org/2000/svg" xmlns:xlink="http://www.w3.org/1999/xlink" x="0px" y="0px"
	 viewBox="0 0 512 512" style="enable-background:new 0 0 512 512;" xml:space="preserve">
<style type="text/css">
	.st0{fill:#B9BBC1;}
	.st1{fill:#8B8996;}
	.st2{fill:#53DCFF;}
	.st3{fill:#5C546A;}
	.st4{fill:#FFFFFF;}
</style>
<g>
	<g>
		<path class="st0" d="M176,203.5c-11,0-20.9,7-24.5,17.3c-1.2,3.4,0.6,7.1,4,8.3c2.2,0.8,4.5,0.2,6.3-1.2l27.3,32.8v7.8
			c0,3.6,2.9,6.5,6.5,6.5s6.5-2.9,6.5-6.5v-39C202,215.2,190.3,203.5,176,203.5z"/>
	</g>
	<g>
		<path class="st1" d="M156.5,216.5c-11.9,0-23.2,4.6-32,13.1l-83.3,91l9.6,8.8l2.3-2.5l136,37.3v1.8c0,3.6,2.9,6.5,6.5,6.5
			s6.5-2.9,6.5-6.5V262C202,236.9,181.6,216.5,156.5,216.5z"/>
	</g>
	<g>
		<path class="st0" d="M280,203.5c11,0,20.9,7,24.5,17.3c1.2,3.4-0.6,7.1-4,8.3c-2.2,0.8-4.5,0.2-6.3-1.2L267,260.7v7.8
			c0,3.6-2.9,6.5-6.5,6.5s-6.5-2.9-6.5-6.5v-39C254,215.2,265.7,203.5,280,203.5z"/>
	</g>
	<g>
		<path class="st1" d="M299.5,216.5c11.9,0,23.2,4.6,32,13.1l83.3,91l-9.6,8.8l-2.3-2.5l-136,37.3v1.8c0,3.6-2.9,6.5-6.5,6.5
			s-6.5-2.9-6.5-6.5V262C254,236.9,274.4,216.5,299.5,216.5z"/>
	</g>
	<g>
		<circle class="st2" cx="111" cy="379" r="71.5"/>
	</g>
	<g>
		<path class="st3" d="M111,288c-50.2,0-91,40.8-91,91s40.8,91,91,91s91-40.8,91-91S161.2,288,111,288z M111,444
			c-35.8,0-65-29.2-65-65s29.2-65,65-65s65,29.2,65,65S146.8,444,111,444z"/>
	</g>
	<g>
		<path class="st3" d="M176,294.5h104l1,0c-12.6,12.4-20.5,29.7-20.5,48.8V366h-65v-22.8c0-19.1-7.8-36.4-20.5-48.8"/>
	</g>
	<g>
		<circle class="st4" cx="124" cy="366" r="26"/>
	</g>
	<g>
		<circle class="st2" cx="345" cy="379" r="71.5"/>
	</g>
	<g>
		<path class="st3" d="M345,288c-50.2,0-91,40.8-91,91s40.8,91,91,91s91-40.8,91-91S395.2,288,345,288z M345,444
			c-35.8,0-65-29.2-65-65s29.2-65,65-65s65,29.2,65,65S380.8,444,345,444z"/>
	</g>
	<g>
		<circle class="st4" cx="358" cy="366" r="26"/>
	</g>
	<g>
		<rect x="176" y="281.5" class="st1" width="104" height="13"/>
	</g>
</g>
<g>
	<g>
		<path d="M483.7,172.3c-6.5-8.8-11.4-16.1-19.4-23.7c-7.6-7.2-14.5-15.2-23-21.6c-6.4-4.8-11.7-10.9-17.6-16.4
			c-3.1-3-6.2-6.1-11-6.1c-4.2-0.1-8.4-0.1-12.6-0.2c-2-0.2-4.1-0.2-6.2-0.1c-1.6,0-3.1-0.1-4.7-0.1c-8.4-0.2-16.7-1-24.8-3.3
			c-5.2-1.5-10.2-3.4-15.3-5.1c-2.2-0.7-3.4-2-3.4-4.5c0-1.8-0.8-3.5-1.2-5.3c-0.5-2.1-1-4.2-1.2-6.3c-0.1-0.9,0.5-2,1.2-2.7
			c1.6-1.6,3.5-3,5.2-4.6c2.7-2.7,4.2-3,7.8-1.6c0.8,0.3,2,0.6,2.5,0.2c1.8-1.6,1.5-3.7,0.8-5.8c0-0.1-0.1-0.2-0.1-0.3
			c-0.3-1.1-1-2-2-2.5l-1.7-0.8c-0.8-0.4-1.6-0.4-2.4-0.3c-0.7,0-1.3,0-1.9,0.1c-0.4,0.1-0.9,0.2-1.3,0.3l-0.7,0
			c-0.5,0-0.9,0.1-1.3,0.3c-0.1,0-0.2,0-0.3,0c-0.3,0-0.6-0.1-0.9,0c-1.6-0.1-3.2-0.8-4.7-2.2c-0.9-0.9-2.3-1.6-3.5-1.7
			c-6.4-0.3-12.1,1.5-16.2,6.5c-2.2,2.6-3.7,5.7-5.4,8.6c-3.1,5.4-7.4,7.8-12.4,6.1c-4.2-1.3-8.5-2.6-12.2-4.8
			c-6-3.5-11.9-7.3-17.2-11.8c-8.5-7.4-16.4-15.5-24.5-23.2c-0.9-0.9-2-1.9-3.2-2.2c-5.8-1.5-11.5-3.2-17.4-4.1
			c-8.4-1.2-16.9-1.3-25.2-2.8c-9.2-1.6-18.3-0.9-27.5-0.8c-5.8,0.1-11.5,1.2-17.3,1c-7.6-0.2-15.3-1.3-22.9-2l-1.9,0.6
			c0.5,0.5,1,1.1,1.6,1.5c1.5,1.2,3,2.3,4.5,3.5c1,0.8,1.8,1.9,2.8,2.7c0.6,0.5,1.3,0.7,1.9,1.2c3.4,2.7,6.7,5.7,11.2,6.6
			c0.5,0.1,0.8,0.7,1.3,0.9c2.9,1.5,5.9,2.9,8.8,4.3c1.2,0.6,2.3,1.6,3.6,1.9c3.2,0.8,6.4,1.3,9.6,1.8c1.1,0.2,3.1-0.4,3.3,0.1
			c1.3,2.5,3.9,1.3,5.3,1.3c4.6,0.1,9,1.8,13.7,0.5c3.2-0.8,6.7-0.3,10-0.3c1.1,0,2.2,0.4,3.3,0.7c2.9,0.9,5.8,2.2,8.7,2.6
			c2.3,0.3,3.7,1.5,5,3.1c1.2,1.3,2.3,2.6,3.5,4c0.5,0.5,1,1,1.5,1.6c0.8,0.9,1.6,2,2.5,2.8c1.1,0.9,2.6,1.5,3.6,2.5
			c2.7,2.6,5.2,5.5,8,8.1c0.3,0.3,0.7,0.7,1.1,1c1.4,1.9,3.2,3.5,5.2,4.6c0.6,0.5,1.2,1,1.7,1.5c1.7,1.5,3,3.8,5,4.6
			c3.7,1.4,4.9,5.9,9.2,6.6c1.3,0.2,2.2,2.6,3.4,3.8c0.6,0.6,1.5,0.7,2.2,1.1c0.4,0.7,1.1,1.1,1.7,1.6c1.3,1.1,2.6,2.2,3.8,3.4
			c0.9,1,1.5,2.3,2.4,3.3c1.1,1.1,2.2,6.3,1.9,7.8c-1,4.2-2.3,8.5-2.6,12.8c-1,11.5-3.5,22.1-12.7,30c-0.5,0.4-0.8,1.7-0.5,2.3
			c1.1,2.1,2.5,4.1,3.7,6.1c-2,2.3-3.9,4.6-5.8,6.8c4.5,4.5,4.5,4.5,6.7,2.2c1.7,0.9,3.3,1.7,5.2,2.6c1.4-1.6,3.2-3.1,4.2-5
			c0.1-0.3,0.3-0.5,0.4-0.7c0.9-0.8,1.7-1.7,2.5-2.6c1.3-1,2.9-1.7,4.5-2.3c2.3-1,4.3-2.3,4.4-5.3c0.2-4.2,1.8-7.9,5.2-10.6
			c3.7-2.9,7.4-5.8,11.4-8.4c4.8-3.1,9.2-6.6,12-11.6c1.4-2.5,3.7-2.9,5.8-3c7.3-0.2,14.6-0.1,21.9-0.2c4.1-0.1,8.1-0.5,12.2-0.5
			c5-0.1,10,0,15-0.1c1.4,0,2.9-0.4,4.3-0.4c2.1,0,4.3,0.6,6.4,0.3c5.2-0.7,10.4-0.8,15.5,0c2,0.3,4.2,1.4,5.8,2.8
			c3.7,3,7.1,6.4,10.5,9.7c3.4,3.2,6.7,6.6,10.1,9.7c1,0.9,2.3,1.5,3.5,2.1c1.2,0.6,2.4,1.1,3.7,1.7c1.8,0.9,3.5,1.8,5.3,2.6
			c0.6,0.3,1.4,0.2,1.8,0.6c2,2,4.1,3.4,7.1,3.3c1.2,0,2.4,1,3.6,1.6c1.1,0.6,2.1,1.4,3.2,1.9c4.1,1.5,8.3,2.9,12.3,4.4
			c0,0.1,0-0.3-0.1-1c2.3,2.3,1-0.7,1.7-1c1.6,2.6,3.6,4.3,6.7,4.3c2-0.2,1.1-1.4,0.8-2.4C484.1,172.6,483.8,172.5,483.7,172.3z"/>
	</g>
</g>
</svg>
