<?xml version="1.0" encoding="iso-8859-1"?>
<!-- Generator: Adobe Illustrator 19.0.0, SVG Export Plug-In . SVG Version: 6.00 Build 0)  -->
<svg version="1.1" id="Layer_1" xmlns="http://www.w3.org/2000/svg" xmlns:xlink="http://www.w3.org/1999/xlink" x="0px" y="0px"
	 viewBox="0 0 512 512" style="enable-background:new 0 0 512 512;" xml:space="preserve">
<path style="fill:#485D6D;" d="M480.397,498.687c-0.87,7.662-7.362,13.313-14.884,13.313c-0.57,0-1.14-0.03-1.71-0.1L256,488.344
	l-1.05,0.12L48.197,511.9c-0.57,0.07-1.14,0.1-1.71,0.1c-7.522,0-14.014-5.651-14.884-13.313
	c-0.94-8.232,4.981-15.664,13.213-16.594l78-8.852l-78-8.842c-8.232-0.93-14.154-8.362-13.213-16.594
	c0.93-8.232,8.362-14.154,16.594-13.223l206.753,23.446l1.05,0.12l207.803-23.566c8.232-0.93,15.664,4.991,16.594,13.223
	c0.94,8.232-4.981,15.664-13.213,16.594l-78,8.842l78,8.852C475.416,483.023,481.337,490.455,480.397,498.687z"/>
<path style="fill:#3B5260;" d="M480.397,498.687c-0.87,7.662-7.362,13.313-14.884,13.313c-0.57,0-1.14-0.03-1.71-0.1L256,488.344
	v-30.198l207.803-23.566c8.232-0.93,15.664,4.991,16.594,13.223c0.94,8.232-4.981,15.664-13.213,16.594l-78,8.842l78,8.852
	C475.416,483.023,481.337,490.455,480.397,498.687z"/>
<path style="fill:#FFCA5F;" d="M451.53,293.415c0,107.247-87.242,194.499-194.489,194.499c-0.35,0-0.69,0-1.04-0.01
	c-106.767-0.55-193.449-87.592-193.449-194.489c0-55.364,19.725-112.379,65.957-190.648c1.61-2.711,3.931-4.731,6.582-5.962
	c0.04-0.02,0.07-0.03,0.11-0.05c0.4-0.18,0.81-0.35,1.22-0.5c0.08-0.03,0.16-0.05,0.24-0.07c0.38-0.13,0.76-0.25,1.15-0.34
	c0.07-0.02,0.15-0.03,0.22-0.05c0.4-0.09,0.8-0.18,1.2-0.24c0.05,0,0.1-0.01,0.15-0.01c0.43-0.06,0.86-0.11,1.29-0.13h0.06
	c0.46-0.02,0.92-0.03,1.39-0.01l0.01,0.01c0.47,0.02,0.95,0.06,1.42,0.13c0.03,0,0.06,0.01,0.09,0.01c0.44,0.07,0.88,0.15,1.32,0.26
	c0.14,0.03,0.29,0.08,0.44,0.12c0.31,0.09,0.63,0.17,0.94,0.28c1.4,0.48,2.751,1.18,3.991,2.101c0.42,0.31,0.82,0.63,1.19,0.98
	c1.35,1.21,2.881,2.611,4.571,4.151c8.192,7.472,19.405,17.694,30.448,26.577c3.001,2.411,5.641,4.431,7.962,6.152
	c-1.45-10.383-2.121-21.235-2.121-33.599c0-33.749,6.792-66.217,19.655-93.904c0.05-0.1,0.1-0.19,0.15-0.28
	c0.14-0.28,0.28-0.55,0.43-0.81c0.1-0.18,0.21-0.36,0.31-0.53c0.15-0.24,0.3-0.47,0.46-0.69c0.14-0.19,0.28-0.38,0.42-0.57
	c0.15-0.19,0.3-0.37,0.45-0.55c0.17-0.2,0.35-0.4,0.53-0.59c0.14-0.15,0.29-0.3,0.44-0.44c0.21-0.2,0.41-0.39,0.62-0.57
	c0.15-0.13,0.31-0.26,0.47-0.38c0.22-0.17,0.44-0.34,0.66-0.5c0.18-0.12,0.35-0.24,0.53-0.36c0.22-0.14,0.44-0.27,0.66-0.4
	c0.21-0.12,0.42-0.23,0.63-0.34c0.21-0.11,0.41-0.21,0.62-0.31c0.24-0.11,0.49-0.21,0.74-0.3c0.19-0.08,0.38-0.15,0.57-0.22
	c0.27-0.09,0.54-0.18,0.82-0.26c0.18-0.05,0.37-0.1,0.56-0.15c0.28-0.06,0.56-0.12,0.84-0.17c0.2-0.04,0.4-0.07,0.6-0.1
	c0.26-0.04,0.53-0.07,0.8-0.09c0.23-0.02,0.46-0.04,0.69-0.05c0.24-0.01,0.49-0.01,0.73-0.01c0.27,0,0.54,0.01,0.81,0.03
	c0.21,0.01,0.42,0.03,0.63,0.05c0.3,0.03,0.59,0.08,0.89,0.12c0.11,0.02,0.21,0.03,0.32,0.05c9.432,1.77,18.635,3.981,27.577,6.612
	c0.35,0.1,0.69,0.2,1.04,0.3c32.878,9.802,62.326,25.326,87.802,46.352c27.297,22.526,50.103,51.373,67.757,85.732
	C441.337,195.13,451.53,257.225,451.53,293.415z"/>
<path style="fill:#FFA52E;" d="M451.53,293.415c0,107.247-87.242,194.499-194.489,194.499c-0.35,0-0.69,0-1.04-0.01V6.862
	c0.35,0.1,0.69,0.2,1.04,0.3c32.878,9.802,62.326,25.326,87.802,46.352c27.297,22.526,50.103,51.373,67.757,85.732
	C441.337,195.13,451.53,257.225,451.53,293.415z"/>
<path style="fill:#FF9248;" d="M329.709,411.685c0,40.07-32.598,72.668-72.668,72.668c-0.35,0-0.7,0-1.04-0.01
	c-39.59-0.56-71.628-32.938-71.628-72.658c0-19.065,7.332-47.892,18.255-71.738c14.824-32.378,33.258-49.763,53.374-50.343
	c0.35-0.01,0.69-0.01,1.04-0.01c20.515,0,39.33,17.414,54.414,50.353C322.377,363.792,329.709,392.62,329.709,411.685z"/>
<path style="fill:#F47B2A;" d="M329.709,411.685c0,40.07-32.598,72.668-72.668,72.668c-0.35,0-0.7,0-1.04-0.01V289.604
	c0.35-0.01,0.69-0.01,1.04-0.01c20.515,0,39.33,17.414,54.414,50.353C322.377,363.792,329.709,392.62,329.709,411.685z"/>
<g>
</g>
<g>
</g>
<g>
</g>
<g>
</g>
<g>
</g>
<g>
</g>
<g>
</g>
<g>
</g>
<g>
</g>
<g>
</g>
<g>
</g>
<g>
</g>
<g>
</g>
<g>
</g>
<g>
</g>
</svg>
