<?xml version="1.0" encoding="utf-8"?>
<!-- Generator: Adobe Illustrator 22.0.0, SVG Export Plug-In . SVG Version: 6.00 Build 0)  -->
<svg version="1.1" id="Layer_1" xmlns="http://www.w3.org/2000/svg" xmlns:xlink="http://www.w3.org/1999/xlink" x="0px" y="0px"
	 viewBox="0 0 512 512" style="enable-background:new 0 0 512 512;" xml:space="preserve">
<style type="text/css">
	.st0{fill:#FFE477;}
	.st1{fill:#FFDA44;}
	.st2{fill:#3E3D42;}
	.st3{fill:#FFCD00;}
	.st4{fill:#A7D16F;}
	.st5{fill:#87C544;}
	.st6{fill:#5EAC24;}
	.st7{fill:#9DE8EA;}
	.st8{fill:#71D5D8;}
	.st9{fill:#5FB2B2;}
	.st10{fill:#FF7956;}
	.st11{fill:#FF6243;}
	.st12{fill:#FF5023;}
	.st13{fill:#FF3501;}
	.st14{fill:#A7A8A5;}
</style>
<path class="st0" d="M355.9,286.7c0,26.9-56.3,48.7-83.2,48.7S224,313.6,224,286.7s21.8-48.7,48.7-48.7S355.9,259.8,355.9,286.7z"/>
<g>
	<path class="st1" d="M351.8,274.1c-5.4,24.9-57.2,44.5-82.7,44.5c-20.3,0-37.7-12.4-45-30.1c0.9,26.1,22.3,46.9,48.6,46.9
		c26.9,0,83.2-21.8,83.2-48.7C355.9,282.4,354.4,278.1,351.8,274.1z"/>
	<path class="st1" d="M372,260.9c14.3,0,15.8,11.6,15.8,25.8c0,14.3-1.5,25.8-15.8,25.8c-14.3,0-47.9-11.6-47.9-25.8
		C324,272.5,357.7,260.9,372,260.9z"/>
	<path class="st1" d="M276.1,286.1c7.2,1.7,22.7,11.4,21,18.6c-1.7,7.2-20,9-27.1,7.3c-7.2-1.7-11.6-8.8-9.9-16
		C261.7,288.9,268.9,284.4,276.1,286.1z"/>
</g>
<path class="st2" d="M259.7,274.6c-1.8,0-3.6-0.7-4.8-2c-1.3-1.3-2-3-2-4.8c0-1.8,0.7-3.6,2-4.8c1.3-1.3,3-2,4.8-2
	c1.8,0,3.6,0.7,4.8,2c1.3,1.3,2,3,2,4.8c0,1.8-0.7,3.6-2,4.8C263.3,273.8,261.5,274.6,259.7,274.6z"/>
<g>
	<path class="st3" d="M276.8,302.9c-7-1.6-11.5-8.6-10-15.6c-3.3,1.7-5.9,4.8-6.8,8.7c-1.7,7.2,2.8,14.3,9.9,16
		c7.2,1.7,25.4-0.2,27.1-7.3c0.2-1.1,0.1-2.2-0.3-3.3C290.4,303.6,281.4,304,276.8,302.9z"/>
	<path class="st3" d="M376.4,298.2c-12.8,0-41.2-9.3-46.9-21.5c-3.4,3.1-5.5,6.5-5.5,10c0,14.3,33.7,25.8,47.9,25.8
		c11.7,0,14.8-7.8,15.6-18.6C385.2,296.6,381.7,298.2,376.4,298.2z"/>
</g>
<path class="st4" d="M465.1,169.2c0,26.9-56.3,48.7-83.2,48.7s-48.7-21.8-48.7-48.7s21.8-48.7,48.7-48.7S465.1,142.3,465.1,169.2z"
	/>
<path class="st5" d="M461,156.5c-5.4,24.9-57.2,44.5-82.7,44.5c-20.3,0-37.7-12.4-45-30.1c0.9,26.1,22.3,46.9,48.6,46.9
	c26.9,0,83.2-21.8,83.2-48.7C465.1,164.8,463.6,160.6,461,156.5z"/>
<path class="st5" d="M481.2,143.3c14.3,0,15.8,11.6,15.8,25.8c0,14.3-1.5,25.8-15.8,25.8c-14.3,0-47.9-11.6-47.9-25.8
	S467,143.3,481.2,143.3z"/>
<path class="st5" d="M385.3,168.5c7.2,1.7,22.7,11.4,21,18.6c-1.7,7.2-20,9-27.1,7.3c-7.2-1.7-11.6-8.8-9.9-16
	C371,171.3,378.1,166.8,385.3,168.5z"/>
<path class="st2" d="M368.9,157c-1.8,0-3.6-0.7-4.8-2c-1.3-1.3-2-3-2-4.8c0-1.8,0.7-3.6,2-4.8c1.3-1.3,3-2,4.8-2
	c1.8,0,3.6,0.7,4.8,2c1.3,1.3,2,3,2,4.8c0,1.8-0.7,3.6-2,4.8C372.5,156.3,370.7,157,368.9,157z"/>
<g>
	<path class="st6" d="M386.1,185.4c-7-1.6-11.5-8.6-10-15.6c-3.3,1.7-5.9,4.8-6.8,8.7c-1.7,7.2,2.8,14.3,9.9,16
		c7.2,1.7,25.4-0.2,27.1-7.3c0.2-1.1,0.1-2.2-0.3-3.3C399.6,186.1,390.6,186.4,386.1,185.4z"/>
	<path class="st6" d="M485.7,180.6c-12.8,0-41.2-9.3-46.9-21.5c-3.4,3.1-5.5,6.5-5.5,10c0,14.3,33.7,25.8,47.9,25.8
		c11.7,0,14.8-7.8,15.6-18.6C494.4,179.1,490.9,180.6,485.7,180.6z"/>
</g>
<path class="st7" d="M355.9,60.2c0,26.9-56.3,48.7-83.2,48.7S224,87.1,224,60.2s21.8-48.7,48.7-48.7S355.9,33.4,355.9,60.2z"/>
<path class="st8" d="M276.1,59.6c7.2,1.7,22.7,11.4,21,18.6s-20,9-27.1,7.3c-7.2-1.7-11.6-8.8-9.9-16
	C261.7,62.4,268.9,57.9,276.1,59.6z"/>
<path class="st2" d="M259.7,48.1c-1.8,0-3.6-0.7-4.8-2c-1.3-1.3-2-3-2-4.8c0-1.8,0.7-3.6,2-4.8c1.3-1.3,3-2,4.8-2
	c1.8,0,3.6,0.7,4.8,2c1.3,1.3,2,3,2,4.8s-0.7,3.6-2,4.8C263.3,47.4,261.5,48.1,259.7,48.1z"/>
<path class="st8" d="M351.8,47.6c-5.4,24.9-57.2,44.5-82.7,44.5c-20.3,0-37.7-12.4-45-30.1c0.9,26.1,22.3,46.9,48.6,46.9
	c26.9,0,83.2-21.8,83.2-48.7C355.9,55.9,354.4,51.7,351.8,47.6z"/>
<path class="st9" d="M276.8,76.5c-7-1.6-11.5-8.6-10-15.6c-3.3,1.7-5.9,4.8-6.8,8.7c-1.7,7.2,2.8,14.3,9.9,16
	c7.2,1.7,25.4-0.2,27.1-7.3c0.2-1.1,0.1-2.2-0.3-3.3C290.4,77.2,281.4,77.5,276.8,76.5z"/>
<path class="st8" d="M372,34.4c14.3,0,15.8,11.6,15.8,25.8s-1.5,25.8-15.8,25.8c-14.3,0-47.9-11.6-47.9-25.8S357.7,34.4,372,34.4z"
	/>
<path class="st9" d="M376.4,71.7c-12.8,0-41.2-9.3-46.9-21.5c-3.4,3.1-5.5,6.5-5.5,10c0,14.3,33.7,25.8,47.9,25.8
	c11.7,0,14.8-7.8,15.6-18.6C385.2,70.2,381.7,71.7,376.4,71.7z"/>
<path class="st10" d="M248.4,170.1c0,26.9-56.3,48.7-83.2,48.7s-48.7-21.8-48.7-48.7s21.8-48.7,48.7-48.7S248.4,143.3,248.4,170.1z"
	/>
<path class="st11" d="M244.3,157.5c-5.4,24.9-57.2,44.5-82.7,44.5c-20.3,0-37.7-12.4-45-30.1c0.9,26.1,22.3,46.9,48.6,46.9
	c26.9,0,83.2-21.8,83.2-48.7C248.4,165.8,246.9,161.6,244.3,157.5z"/>
<path class="st12" d="M264.5,144.3c14.3,0,15.8,11.6,15.8,25.8c0,14.3-1.5,25.8-15.8,25.8s-47.9-11.6-47.9-25.8
	S250.2,144.3,264.5,144.3z"/>
<path class="st13" d="M268.9,181.6c-12.8,0-41.2-9.3-46.9-21.5c-3.4,3.1-5.5,6.5-5.5,10c0,14.3,33.7,25.8,47.9,25.8
	c11.7,0,14.8-7.8,15.6-18.6C277.7,180.1,274.2,181.6,268.9,181.6z"/>
<path class="st12" d="M168.6,169.5c7.2,1.7,22.7,11.4,21,18.6c-1.7,7.2-20,9-27.1,7.3c-7.2-1.7-11.6-8.8-9.9-16
	C154.2,172.3,161.4,167.8,168.6,169.5z"/>
<path class="st13" d="M169.3,186.3c-7-1.6-11.5-8.6-10-15.6c-3.3,1.7-5.9,4.8-6.8,8.7c-1.7,7.2,2.8,14.3,9.9,16
	c7.2,1.7,25.4-0.2,27.1-7.3c0.2-1.1,0.1-2.2-0.3-3.3C182.9,187.1,173.9,187.4,169.3,186.3z"/>
<path class="st2" d="M152.2,158c-1.8,0-3.6-0.7-4.8-2c-1.3-1.3-2-3-2-4.8c0-1.8,0.7-3.6,2-4.8c1.3-1.3,3-2,4.8-2
	c1.8,0,3.6,0.7,4.8,2c1.3,1.3,2,3,2,4.8c0,1.8-0.7,3.6-2,4.8C155.8,157.3,154,158,152.2,158z"/>
<path class="st14" d="M126.3,404.8h35.5c-4.9,25.3-27.3,44.8-53.8,44.8c-30.2,0-54.8-24.8-54.8-55V294.4c2.9-2.8,4.9-7.1,4.9-11.9
	V197c0-8.5-6.6-15.4-15.1-15.4s-15.1,6.9-15.1,15.4v85.6c0,4.8,1.9,9,4.9,11.9v100.2c0,41,33.8,74.4,74.8,74.4
	c40.5,0,74.2-33.3,74.7-74.3c0-0.3,0.2-37.8,0.2-38.2V326L126.3,404.8z"/>
</svg>
