<?xml version="1.0" encoding="utf-8"?>
<!-- Generator: Adobe Illustrator 22.0.0, SVG Export Plug-In . SVG Version: 6.00 Build 0)  -->
<svg version="1.1" id="Capa_1" xmlns="http://www.w3.org/2000/svg" xmlns:xlink="http://www.w3.org/1999/xlink" x="0px" y="0px"
	 viewBox="0 0 480 480" style="enable-background:new 0 0 480 480;" xml:space="preserve">
<style type="text/css">
	.st0{fill:#FFEDB9;}
	.st1{fill:#FFC7B3;}
	.st2{fill:#FFAC88;}
	.st3{fill:#E27E5A;}
</style>
<path class="st0" d="M258.1,0.7c1.1,0.1,2.1,0.2,3.2,0.3C260.2,0.9,259.2,0.8,258.1,0.7z"/>
<path class="st0" d="M246.1,0.1c0.8,0,1.5,0.1,2.3,0.1C247.6,0.1,246.8,0.1,246.1,0.1z"/>
<path class="st0" d="M252.1,0.3c1,0,1.9,0.1,2.9,0.2C254,0.4,253.1,0.4,252.1,0.3z"/>
<path class="st0" d="M0.1,248c0-0.7-0.1-1.3-0.1-2C0.1,246.6,0.1,247.3,0.1,248z"/>
<path class="st0" d="M1.4,266.3c-0.1-0.9-0.2-1.7-0.3-2.6C1.2,264.5,1.3,265.4,1.4,266.3z"/>
<path class="st1" d="M303.6,8.5c38.6,10.6,73.2,30.6,101.4,57.3c-9.5-1.1-19.2-1.8-29-1.8c-11.1,0-22,0.8-32.7,2.2
	c0.4,0.6,0.9,1.2,1.3,1.8c9.1,13.5,8,30.1-2.5,37.2c-10.5,7.1-26.4,1.9-35.5-11.6c-3.8-5.6-5.8-11.8-6.1-17.6
	c-18.2,6-35.4,14.2-51.3,24.1c4.3,5.4,6.8,12.3,6.8,19.8c0,17.7-14.3,32-32,32c-9.6,0-18.3-4.3-24.1-11
	C160.2,183.8,136,241.1,136,304c0,68.6,28.8,130.5,75,174.2c-77.9-9.4-144.3-56.1-180.9-121.7C71.1,430.2,149.7,480,240,480
	c132.5,0,240-107.5,240-240C480,129.5,405.3,36.4,303.6,8.5z M186.3,186.3c3-3,8.3-3,11.4,0c1.4,1.5,2.3,3.6,2.3,5.7
	c0,2.1-0.9,4.2-2.3,5.7c-1.5,1.4-3.6,2.3-5.7,2.3s-4.2-0.9-5.7-2.3c-1.4-1.5-2.3-3.6-2.3-5.7C184,189.8,184.9,187.8,186.3,186.3z
	 M181.7,389.7c-1.5,1.4-3.6,2.3-5.7,2.3s-4.2-0.9-5.7-2.3c-1.4-1.5-2.3-3.6-2.3-5.7c0-2.1,0.9-4.2,2.3-5.7c3-3,8.3-3,11.4,0
	c1.4,1.5,2.3,3.6,2.3,5.7C184,386.1,183.1,388.2,181.7,389.7z M184,300c0-24.3,19.7-44,44-44c24.3,0,44,19.7,44,44s-19.7,44-44,44
	S184,324.3,184,300z M268.3,438.9c-19.7,5.3-38.8-2.6-42.9-17.6c-4-15,8.7-31.4,28.3-36.7c19.7-5.3,38.8,2.6,42.9,17.6
	S287.9,433.6,268.3,438.9z M325.7,293.7c-1.5,1.4-3.6,2.3-5.7,2.3s-4.2-0.9-5.7-2.3c-1.4-1.5-2.3-3.6-2.3-5.7c0-2.1,0.9-4.2,2.3-5.7
	c3-3,8.3-3,11.4,0c1.4,1.5,2.3,3.6,2.3,5.7C328,290.1,327.1,292.2,325.7,293.7z M312,216c-13.3,0-24-10.7-24-24s10.7-24,24-24
	s24,10.7,24,24S325.3,216,312,216z M378.4,146.3c2.8-2.9,8.2-3,11.3,0c1.4,1.5,2.3,3.6,2.3,5.7c0,2.1-0.9,4.2-2.3,5.7
	c-1.5,1.4-3.6,2.3-5.7,2.3c-2.2,0-4.2-0.9-5.7-2.3c-1.4-1.5-2.3-3.6-2.3-5.7C376,149.8,376.9,147.8,378.4,146.3z M383.9,352.6
	c-9,9-21.8,10.8-28.5,4.1c-6.7-6.7-4.9-19.5,4.1-28.5c9-9,21.8-10.8,28.5-4.1S392.9,343.6,383.9,352.6z M388.3,267.6
	c-12.3-2-20.1-17-17.4-33.4c2.7-16.4,14.9-28.1,27.2-26s20.1,17,17.4,33.4C412.8,258,400.6,269.7,388.3,267.6z"/>
<path class="st0" d="M0.4,254.3c0-0.8-0.1-1.6-0.1-2.4C0.3,252.7,0.4,253.5,0.4,254.3z"/>
<path class="st0" d="M298.1,7.1c1.7,0.4,3.5,0.9,5.2,1.4C301.6,8,299.9,7.5,298.1,7.1z"/>
<path class="st0" d="M287.1,4.6c1.5,0.3,3.1,0.6,4.6,1C290.1,5.3,288.6,4.9,287.1,4.6z"/>
<path class="st0" d="M264,1.2c1.2,0.1,2.3,0.3,3.5,0.4C266.3,1.4,265.2,1.3,264,1.2z"/>
<path class="st0" d="M0.9,260.3c-0.1-0.8-0.1-1.7-0.2-2.5C0.7,258.7,0.8,259.5,0.9,260.3z"/>
<path class="st0" d="M292.6,5.8c1.6,0.4,3.3,0.8,4.9,1.1C295.9,6.6,294.3,6.2,292.6,5.8z"/>
<path class="st0" d="M269.9,1.8c1.3,0.2,2.5,0.3,3.8,0.5C272.4,2.2,271.1,2,269.9,1.8z"/>
<path class="st0" d="M275.7,2.6c1.4,0.2,2.7,0.4,4,0.6C278.4,3.1,277,2.8,275.7,2.6z"/>
<path class="st0" d="M281.4,3.6c1.4,0.3,2.9,0.5,4.3,0.8C284.3,4.1,282.8,3.8,281.4,3.6z"/>
<path class="st0" d="M4,283.7c-0.2-0.9-0.3-1.8-0.5-2.7C3.7,281.9,3.8,282.8,4,283.7z"/>
<path class="st0" d="M2.1,272.1c-0.1-0.9-0.2-1.8-0.3-2.7C1.9,270.4,2,271.3,2.1,272.1z"/>
<path class="st0" d="M14.1,321.2c-1.6-4.3-3-8.7-4.3-13.1C11.1,312.5,12.6,316.9,14.1,321.2z"/>
<path class="st0" d="M17.9,331c-0.5-1.3-1-2.5-1.5-3.8C16.8,328.4,17.3,329.7,17.9,331z"/>
<path class="st0" d="M20,336.1c-0.5-1.3-1.1-2.5-1.6-3.8C18.9,333.6,19.5,334.8,20,336.1z"/>
<path class="st0" d="M15.9,325.9c-0.5-1.3-1-2.6-1.5-4C14.8,323.3,15.3,324.6,15.9,325.9z"/>
<path class="st0" d="M5.1,289.4c-0.2-0.9-0.4-1.8-0.6-2.8C4.7,287.6,4.9,288.5,5.1,289.4z"/>
<path class="st0" d="M7.7,300.6c-0.2-1-0.5-1.9-0.7-2.9C7.2,298.7,7.5,299.7,7.7,300.6z"/>
<path class="st0" d="M6.3,295c-0.2-0.9-0.4-1.9-0.6-2.8C5.9,293.2,6.1,294.1,6.3,295z"/>
<path class="st0" d="M3,278c-0.1-0.9-0.3-1.8-0.4-2.7C2.7,276.2,2.9,277.1,3,278z"/>
<path class="st0" d="M9.2,306.2c-0.3-1-0.6-2-0.8-3C8.7,304.1,9,305.2,9.2,306.2z"/>
<path class="st0" d="M24.7,346.2c-0.6-1.3-1.3-2.6-1.9-3.9C23.5,343.6,24.1,344.9,24.7,346.2z"/>
<path class="st0" d="M29.9,356.1c-0.8-1.4-1.5-2.8-2.3-4.2C28.4,353.3,29.2,354.7,29.9,356.1z"/>
<path class="st0" d="M27.3,351.2c-0.7-1.3-1.4-2.7-2-4C25.9,348.5,26.6,349.9,27.3,351.2z"/>
<path class="st0" d="M22.3,341.2c-0.6-1.3-1.2-2.5-1.7-3.8C21.2,338.7,21.7,339.9,22.3,341.2z"/>
<path class="st2" d="M211,478.2c-46.2-43.7-75-105.6-75-174.2c0-62.9,24.2-120.2,63.9-163c5.9,6.7,14.5,11,24.1,11
	c17.7,0,32-14.3,32-32c0-7.5-2.6-14.3-6.8-19.8c16-10,33.2-18.1,51.3-24.1c0.3,5.8,2.3,12,6.1,17.6c9.1,13.5,25,18.6,35.5,11.6
	c10.5-7.1,11.6-23.8,2.5-37.2c-0.4-0.6-0.9-1.2-1.3-1.8C354,64.8,364.9,64,376,64c9.8,0,19.5,0.7,29,1.8
	c-28.2-26.7-62.9-46.7-101.4-57.3c-0.1,0-0.2,0-0.2-0.1c-1.7-0.5-3.4-0.9-5.2-1.4c-0.2-0.1-0.4-0.1-0.6-0.2
	c-1.6-0.4-3.2-0.8-4.9-1.1c-0.3-0.1-0.7-0.1-1-0.2c-1.5-0.3-3.1-0.7-4.6-1c-0.4-0.1-0.9-0.2-1.3-0.3c-1.4-0.3-2.9-0.5-4.3-0.8
	c-0.6-0.1-1.1-0.2-1.7-0.3c-1.3-0.2-2.7-0.4-4-0.6c-0.7-0.1-1.3-0.2-2-0.3c-1.3-0.2-2.5-0.4-3.8-0.5c-0.8-0.1-1.6-0.2-2.4-0.3
	c-1.2-0.1-2.3-0.3-3.5-0.4c-0.9-0.1-1.8-0.2-2.7-0.2c-1.1-0.1-2.1-0.2-3.2-0.3c-1-0.1-2.1-0.1-3.1-0.2c-1-0.1-1.9-0.1-2.9-0.2
	c-1.2-0.1-2.5-0.1-3.7-0.1c-0.8,0-1.5-0.1-2.3-0.1C244.1,0,242,0,240,0C107.5,0,0,107.5,0,240c0,2,0,4,0.1,6c0,0.7,0,1.3,0.1,2
	c0,1.3,0.1,2.6,0.2,3.9c0,0.8,0.1,1.6,0.1,2.4c0.1,1.2,0.1,2.4,0.2,3.5c0.1,0.8,0.1,1.7,0.2,2.5c0.1,1.1,0.2,2.2,0.3,3.3
	c0.1,0.9,0.2,1.7,0.3,2.6c0.1,1.1,0.2,2.1,0.4,3.2c0.1,0.9,0.2,1.8,0.3,2.7c0.1,1,0.3,2.1,0.4,3.1c0.1,0.9,0.3,1.8,0.4,2.7
	c0.2,1,0.3,2,0.5,3c0.2,0.9,0.3,1.8,0.5,2.7c0.2,1,0.4,2,0.6,2.9c0.2,0.9,0.4,1.8,0.6,2.8c0.2,0.9,0.4,1.9,0.6,2.8
	c0.2,0.9,0.4,1.9,0.6,2.8c0.2,0.9,0.4,1.8,0.7,2.7c0.2,1,0.5,1.9,0.7,2.9c0.2,0.8,0.4,1.7,0.7,2.5c0.3,1,0.5,2,0.8,3
	c0.2,0.6,0.4,1.3,0.6,1.9c1.3,4.4,2.7,8.8,4.3,13.1c0.1,0.2,0.2,0.5,0.3,0.7c0.5,1.3,1,2.6,1.5,4c0.2,0.4,0.3,0.8,0.5,1.3
	c0.5,1.3,1,2.5,1.5,3.8c0.2,0.4,0.4,0.9,0.5,1.3c0.5,1.3,1.1,2.5,1.6,3.8c0.2,0.4,0.4,0.9,0.6,1.3c0.6,1.3,1.1,2.5,1.7,3.8
	c0.2,0.4,0.4,0.8,0.5,1.2c0.6,1.3,1.2,2.6,1.9,3.9c0.2,0.3,0.3,0.7,0.5,1c0.7,1.3,1.4,2.7,2,4c0.1,0.2,0.3,0.5,0.4,0.7
	c0.7,1.4,1.5,2.8,2.3,4.2c0.1,0.1,0.1,0.2,0.2,0.4C66.7,422.1,133.1,468.8,211,478.2z"/>
<path class="st2" d="M309.1,56.5c10-6.8,24.8-2.3,34.1,9.8c-14.7,2-28.9,5.3-42.6,9.9C300.2,68,303,60.6,309.1,56.5z"/>
<path class="st2" d="M202.3,34.3c3-3,8.3-3,11.4,0c1.4,1.5,2.3,3.6,2.3,5.7c0,2.1-0.9,4.2-2.3,5.7c-1.5,1.4-3.6,2.3-5.7,2.3
	s-4.2-0.9-5.7-2.3c-1.4-1.5-2.3-3.5-2.3-5.7S200.9,35.8,202.3,34.3z"/>
<path class="st2" d="M192,118.4C192.9,102,206,88.9,222.4,88c0.5,0,1.1,0,1.6,0c10.2,0,19.2,4.9,25.1,12.3
	c-18.1,11.3-34.6,25-49.1,40.6c-4.9-5.6-8-12.9-8-20.9C192,119.4,192,118.9,192,118.4z"/>
<path class="st2" d="M104.2,100.2c9.4-9.4,23.7-10.4,31.9-2.1c8.2,8.2,7.3,22.5-2.1,31.9s-23.7,10.4-31.9,2.1
	S94.8,109.6,104.2,100.2z"/>
<path class="st2" d="M120,287.9c0,2.1-0.9,4.2-2.3,5.7c-1.5,1.4-3.6,2.3-5.7,2.3s-4.2-0.9-5.7-2.3c-1.4-1.5-2.3-3.6-2.3-5.7
	c0-2.1,0.9-4.2,2.3-5.7c3-3,8.4-3,11.4,0C119.1,283.7,120,285.8,120,287.9z"/>
<ellipse class="st2" cx="76" cy="224" rx="28" ry="32"/>
<path class="st2" d="M77.1,325.1c9.4-9.4,27.1-6.8,39.6,5.7s15,30.2,5.7,39.6s-27.1,6.8-39.6-5.7S67.7,334.5,77.1,325.1z"/>
<ellipse class="st3" cx="76" cy="224" rx="28" ry="32"/>
<ellipse transform="matrix(0.7071 -0.7071 0.7071 0.7071 -216.6627 172.3514)" class="st3" cx="99.7" cy="347.7" rx="24" ry="32"/>
<ellipse transform="matrix(0.7071 -0.7071 0.7071 0.7071 -131.8219 362.4802)" class="st2" cx="371.6" cy="340.4" rx="23" ry="17.3"/>
<path class="st2" d="M192,200c2.1,0,4.2-0.9,5.7-2.3c1.4-1.5,2.3-3.6,2.3-5.7c0-2.1-0.9-4.2-2.3-5.7c-3-3-8.3-3-11.4,0
	c-1.4,1.5-2.3,3.5-2.3,5.7c0,2.1,0.9,4.2,2.3,5.7C187.8,199.1,189.9,200,192,200z"/>
<path class="st3" d="M106.3,282.2c-1.4,1.5-2.3,3.6-2.3,5.7c0,2.1,0.9,4.2,2.3,5.7c1.5,1.4,3.6,2.3,5.7,2.3s4.2-0.9,5.7-2.3
	c1.4-1.5,2.3-3.6,2.3-5.7c0-2.1-0.9-4.2-2.3-5.7C114.7,279.3,109.3,279.3,106.3,282.2z"/>
<path class="st2" d="M314.3,282.3c-1.4,1.5-2.3,3.6-2.3,5.7c0,2.1,0.9,4.2,2.3,5.7c1.5,1.4,3.6,2.3,5.7,2.3s4.2-0.9,5.7-2.3
	c1.4-1.5,2.3-3.6,2.3-5.7c0-2.1-0.9-4.2-2.3-5.7C322.6,279.4,317.4,279.4,314.3,282.3z"/>
<path class="st2" d="M384,160c2.1,0,4.2-0.9,5.7-2.3c1.4-1.5,2.3-3.6,2.3-5.7c0-2.1-0.9-4.2-2.3-5.7c-3-3-8.5-2.9-11.3,0
	c-1.5,1.5-2.4,3.5-2.4,5.7c0,2.1,0.9,4.2,2.3,5.7C379.8,159.1,381.8,160,384,160z"/>
<path class="st3" d="M208,48c2.1,0,4.2-0.9,5.7-2.3c1.4-1.5,2.3-3.6,2.3-5.7c0-2.1-0.9-4.2-2.3-5.7c-3-3-8.4-3-11.4,0
	c-1.4,1.4-2.3,3.5-2.3,5.7s0.9,4.2,2.3,5.7C203.8,47.1,205.9,48,208,48z"/>
<path class="st2" d="M170.3,378.3c-1.4,1.5-2.3,3.6-2.3,5.7c0,2.1,0.9,4.2,2.3,5.7c1.5,1.4,3.6,2.3,5.7,2.3s4.2-0.9,5.7-2.3
	c1.4-1.5,2.3-3.6,2.3-5.7c0-2.1-0.9-4.2-2.3-5.7C178.6,375.4,173.4,375.4,170.3,378.3z"/>
<circle class="st2" cx="228" cy="300" r="44"/>
<circle class="st2" cx="312" cy="192" r="24"/>
<ellipse transform="matrix(0.966 -0.2587 0.2587 0.966 -97.6273 81.5366)" class="st2" cx="261" cy="411.7" rx="36.8" ry="28.1"/>
<ellipse transform="matrix(0.1627 -0.9867 0.9867 0.1627 94.4682 587.1921)" class="st2" cx="393.2" cy="237.9" rx="30.1" ry="22.6"/>
<path class="st3" d="M200,140.9c14.5-15.6,31-29.3,49.1-40.6C243.2,92.9,234.2,88,224,88c-0.6,0-1.1,0-1.6,0
	C206,88.9,192.9,102,192,118.4c0,0.5,0,1.1,0,1.6C192,128,195.1,135.3,200,140.9z"/>
<ellipse transform="matrix(0.7071 -0.7071 0.7071 0.7071 -46.503 117.9281)" class="st3" cx="119.1" cy="115.1" rx="24.1" ry="21.1"/>
<path class="st3" d="M300.6,76.2c13.7-4.5,27.9-7.9,42.6-9.9c-9.3-12.1-24.1-16.6-34.1-9.8C303,60.6,300.2,68,300.6,76.2z"/>
</svg>
