<?xml version="1.0" encoding="utf-8"?>
<!-- Generator: Adobe Illustrator 22.0.0, SVG Export Plug-In . SVG Version: 6.00 Build 0)  -->
<svg version="1.1" id="Capa_1" xmlns="http://www.w3.org/2000/svg" xmlns:xlink="http://www.w3.org/1999/xlink" x="0px" y="0px"
	 viewBox="0 0 512 512" style="enable-background:new 0 0 512 512;" xml:space="preserve">
<style type="text/css">
	.st0{clip-path:url(#SVGID_2_);}
	.st1{fill:#0A0933;}
	.st2{fill:#5BD6FD;}
	.st3{fill:#817CD0;}
	.st4{fill:#00C071;}
	.st5{fill:#00A45B;}
	.st6{fill:#36D39A;}
</style>
<g>
	<defs>
		<circle id="SVGID_1_" cx="256" cy="256" r="247"/>
	</defs>
	<clipPath id="SVGID_2_">
		<use xlink:href="#SVGID_1_"  style="overflow:visible;"/>
	</clipPath>
	<g class="st0">
		<rect x="0" class="st1" width="512" height="512"/>
		<path class="st2" d="M512,81.4V0h-76.1C359.7,164.3,206.9,81.4,0,162.9v64l43.8,9.1l191.6-20.8H442l46.8-47L512,81.4z"/>
		<path class="st3" d="M512,200.6c-97.5,105-199.9,1.8-512,80.6v-54.4c276-115.6,422.8,34.2,512-145.4V200.6z"/>
		<path class="st4" d="M292.9,512h143c-0.5-2-1.2-4-2.2-5.9l-33.1-64l-44.4-29.4h-95.1l-27.8,53.2L292.9,512z"/>
		<path class="st5" d="M349.5,475.7c9.4,5.1,20,7.9,31,7.9c0.8,0,1.6,0,2.4,0c12.3-0.4,23.7-4.9,32.8-12.4l-15-29l-44.4-29.4h-95.1
			l-26.5,50.7l1.9,5l21.1,16.3l12-2.5c6.2-1.3,12.2-3.5,17.7-6.5c9.4,5.1,20,7.9,31,7.9C329.4,483.6,340.1,480.8,349.5,475.7
			L349.5,475.7z"/>
		<path class="st4" d="M263.4,452c10.6-2.2,19.4-9.3,24-18.8c5.6,11.5,17.4,19.5,31,19.5c13.7,0,25.5-8,31-19.5v0
			c5.6,11.5,17.4,19.5,31,19.5c0.4,0,0.9,0,1.3,0c18.2-0.7,29-20.9,19.8-36.6l-36.4-62.7l-77.4-47.6l-65.6,39.9L263.4,452z"/>
		<path class="st5" d="M318.4,386.5c9.4,5.1,20,7.9,31,7.9c0.8,0,1.6,0,2.5,0c11.4-0.4,22-4.3,30.8-10.9l-17.5-30.2l-77.4-47.6
			l-65.6,39.9l18.2,47.1c5.6-1.3,10.9-3.4,15.9-6.1c9.4,5.1,20,7.9,31,7.9C298.4,394.4,309,391.6,318.4,386.5L318.4,386.5z"/>
		<path class="st4" d="M232.2,362.8c10.7-2.2,19.5-9.3,24.1-18.8v0c5.6,11.5,17.4,19.5,31,19.5c13.7,0,25.5-8,31-19.5v0
			c5.6,11.5,17.4,19.5,31,19.5c0.4,0,0.9,0,1.3,0c16.7-0.6,27-17.7,21.5-32.6c-0.7-2-1.8-3.8-3-5.6l-52.1-73.9
			c-6.8-9.7-18-15.5-29.8-15.5s-23,5.8-29.8,15.5l-34.1,48.4L186,338.7L232.2,362.8z"/>
		<path class="st6" d="M292.9,512l-30.3-58.7l-61.4-40.7H10.6l-10.6,7V512H292.9z"/>
		<path class="st4" d="M262.6,453.3l-61.4-40.7H10.6l-10.6,7v77.7l14.9-8.2c1.8-1,3.5-2,5.2-3.1c12.6,8.2,27.4,12.8,42.8,12.8
			c15.5,0,30.4-4.6,42.9-12.9c12.6,8.2,27.5,12.9,42.9,12.9s30.4-4.6,42.9-12.9c12.6,8.2,27.5,12.9,42.9,12.9c1,0,1.9,0,2.9-0.1
			c15.2-0.6,29.3-6.4,40.2-16.2L262.6,453.3z"/>
		<path class="st6" d="M263.8,417.3l-50.3-86.8l-107-65.9L0,329.4v132.7c8.7-4.8,15.7-12.2,20-21.1v0c7.7,16,24,27,42.9,27
			c18.9,0,35.2-11,42.9-27c7.7,16,24,27,42.9,27c18.9,0,35.2-11,42.9-27v0c7.7,16,24,27,42.9,27c0.6,0,1.2,0,1.8,0
			C261.6,467,276.5,439.1,263.8,417.3L263.8,417.3z"/>
		<path class="st4" d="M105.9,375.6c15.5,0,30.4-4.6,42.9-12.9c12.6,8.2,27.5,12.9,42.9,12.9c1,0,2,0,3-0.1
			c13.8-0.5,26.6-5.3,37-13.6l-18.2-31.4l-107-65.9L0,329.4v43.1c5.5,1.7,11.2,2.8,17,3c1,0,2,0.1,3,0.1c15.5,0,30.4-4.6,42.9-12.9
			C75.5,370.9,90.4,375.6,105.9,375.6L105.9,375.6z"/>
		<path class="st6" d="M223.3,299.5c-1-2.8-2.5-5.3-4.2-7.7l-72.1-102.2c-9.4-13.4-24.8-21.4-41.2-21.4s-31.8,8-41.2,21.4L0,281.2
			v57c5,3.7,11.2,6.1,18.2,6.4c0.6,0,1.2,0,1.8,0c18.9,0,35.2-11,42.9-27v0c7.7,16,24,27,42.9,27s35.2-11,42.9-27v0
			c7.7,16,24,27,42.9,27c0.6,0,1.2,0,1.8,0C216.6,343.8,230.9,320.1,223.3,299.5L223.3,299.5z"/>
	</g>
</g>
</svg>
