<?xml version="1.0" encoding="utf-8"?>
<!-- Generator: Adobe Illustrator 22.0.0, SVG Export Plug-In . SVG Version: 6.00 Build 0)  -->
<svg version="1.1" id="Capa_1" xmlns="http://www.w3.org/2000/svg" xmlns:xlink="http://www.w3.org/1999/xlink" x="0px" y="0px"
	 viewBox="0 0 195 195" style="enable-background:new 0 0 195 195;" xml:space="preserve">
<style type="text/css">
	.st0{fill:#743A1B;}
	.st1{fill:#9E5636;}
</style>
<path class="st0" d="M62.9,57.4c4.3,0.9,17.3,4.9,25.5,20.1c-0.3,0.4-0.7,0.7-1,1.1c-2.8,3.1-5.9,7.5-8.1,13.3
	C71.5,82.4,62,78.2,54.9,76.4C56.1,65.4,60.8,59.5,62.9,57.4z"/>
<path class="st0" d="M76.9,99.9c-0.8,3.7-1.1,7.1-1,11.6c0.1,3.8,0.5,7.6,1.3,11.1c-4.8-0.5-8.2-0.4-8.5-0.4c-0.9,0-1.8,0.5-2.4,1.2
	c-0.2,0.2-2.1,2.7-4.3,6.5c-2.5-3.1-5.1-5.5-8.8-8.2c-3.7-2.8-7.4-4.8-10.9-6.3c-0.1-0.2-0.1-0.4-0.2-0.5c-6-16.9,1.2-29.7,3.8-33.5
	c4.8,0.2,23.3,2.3,30.2,16.8C76.6,99.2,76.9,99.9,76.9,99.9z"/>
<path class="st0" d="M28,47.2c4.6,0.1,18,1.3,27.5,9.3c-2.7,3.8-5.8,10-6.8,18.8c-2.5-0.3-4.2-0.2-4.4-0.2c-0.9,0-1.7,0.5-2.3,1.1
	c-0.1,0.2-1.1,1.4-2.3,3.4c-6.8-4-12.5-5.7-18.4-6.5C20.6,61.4,25.9,50.9,28,47.2z"/>
<path class="st0" d="M15.6,80c0.9-0.2,1.8-0.6,4.3-0.6c2.4,0,10.5,2.2,16.8,6c-2.7,6.5-4.8,16.1-1.8,27.7c-5.8-1.4-10.9-1.4-15-1
	c-1,0.1-1.9,0.2-2.8,0.4C9.5,96.9,13.9,83.9,15.6,80z"/>
<path class="st0" d="M10.2,132.9c-1.1-5.2-0.8-9.5-0.5-11.6c1.9-0.9,6-2.4,11.2-2.9c10-1,19.6,1.9,28.6,8.5c4.7,3.5,7,6.1,9.3,9.4
	c-1.9,4.3-3.6,9.4-4.2,14.7c-11.4,0.9-21.5,4.2-27.8,6.8c0,0,0,0,0,0C17.8,151.1,12.2,142.7,10.2,132.9z"/>
<path class="st0" d="M129.3,136.8c-1.1,18.7-11.1,33.3-29.7,43.5c-0.3-1.4-0.4-2.3-0.4-2.3c-0.1-1.8-1.6-3.1-3.4-3
	c-1.8,0.1-3.1,1.6-3,3.4c0,0.2,0.2,2,0.9,4.8c-18.7,8.4-35.9,7.7-51.4-2.3c-8.2-5.3-13.8-12-16.6-15.8c5.5-2.5,17.8-7.4,31.9-8
	c1.7-0.1,3-1.4,3.1-3.1c0.4-11.2,7.3-22,9.7-25.5c4.3,0,17,0.7,26.4,6.9c1.4,0.9,3.3,0.6,4.3-0.7c8.6-11.1,19.7-18.3,25-21.3
	C127.7,117.9,129.9,126.7,129.3,136.8z"/>
<path class="st0" d="M120.5,109.4c-5.8,3.6-14.8,10-22.6,19.3c-4.5-2.5-9.4-4.1-13.9-5c-1.2-3.9-1.8-8-1.8-12.3
	c-0.2-11.2,3.1-20.7,9.7-28.2c3.5-4,7.1-6.4,8.9-7.4C105.3,78.1,119.6,87.5,120.5,109.4z"/>
<path class="st1" d="M176.8,32.4c0.9,2.1,3.3,8.8-0.5,16.9c-0.3,0-0.5-0.1-0.8-0.1c-2.2-0.2-5-0.1-8.1,0.7c1.6-6.2,0.4-11.5-1.1-15
	C171.4,32.1,175.3,32.2,176.8,32.4z"/>
<path class="st1" d="M163.4,51.5c-1.8,0.8-3.3,1.7-5.2,3.1c-1.6,1.2-3,2.6-4.3,4c-1.3-2.2-2.4-3.5-2.5-3.7c-0.3-0.4-0.8-0.6-1.2-0.6
	c-0.2,0-1.8,0-4.1,0.2c0.5-2,0.7-3.8,0.7-6.2c0-2.4-0.3-4.6-0.8-6.5c0.1-0.1,0.1-0.2,0.2-0.3c5.2-7.8,12.8-8.7,15.2-8.8
	c1.4,2.1,6.3,10.5,2.3,17.9C163.6,51.1,163.4,51.5,163.4,51.5z"/>
<path class="st1" d="M170.3,14.6c1.4,2,5,8,4.6,14.4c-2.4,0.1-6,0.7-10,3c-0.7-1.1-1.2-1.8-1.3-1.9c-0.3-0.4-0.7-0.6-1.2-0.6
	c-0.1,0-0.9,0-2.2,0.1c-0.4-4.1-1.5-7-3-9.7C162.1,15.9,168.1,14.9,170.3,14.6z"/>
<path class="st1" d="M152.7,19.6c0.4,0.3,0.8,0.6,1.6,1.6c0.7,1,2.3,5.1,2.7,8.9c-3.6,0.9-8.3,3-12.2,7.8c-1.2-2.9-2.8-5-4.2-6.6
	c-0.3-0.4-0.7-0.7-1-1C143.7,22.3,150.6,20.1,152.7,19.6z"/>
<path class="st1" d="M128.8,33.7c1.9-2.1,3.7-3.3,4.7-3.8c1,0.5,2.9,1.8,4.7,3.8c3.5,3.9,5.3,8.8,5.3,14.6c0,3-0.4,4.8-1,6.8
	c-2.4,0.5-5,1.4-7.5,2.8c-3.9-4.5-8.4-7.7-11.5-9.6c0,0,0,0,0,0C123.6,42.5,125.3,37.6,128.8,33.7z"/>
<path class="st1" d="M164.1,84.9c-8.2,5.3-17.4,5.6-27.5,1c0.5-0.6,0.8-0.9,0.8-0.9c0.7-0.6,0.8-1.6,0.2-2.3
	c-0.6-0.7-1.6-0.8-2.3-0.2c-0.1,0.1-0.8,0.7-1.7,1.8c-9.3-5.2-14.4-12.7-15-22.3c-0.3-5.1,0.8-9.5,1.5-11.8
	c2.8,1.5,8.6,5.2,13.2,10.9c0.5,0.7,1.5,0.8,2.2,0.3c4.8-3.3,11.5-3.8,13.7-3.8c1.3,1.8,5,7.4,5.3,13.2c0,0.9,0.7,1.6,1.6,1.6
	c7.3,0.2,13.8,2.6,16.7,3.9C171.5,78.4,168.6,82,164.1,84.9z"/>
<path class="st1" d="M172.9,72.7c-3.3-1.3-8.8-3.1-15.1-3.5c-0.3-2.7-1.2-5.2-2.2-7.4c1.3-1.7,2.8-3.2,4.6-4.6
	c4.6-3.5,9.6-5.1,14.9-4.7c2.8,0.2,4.9,1,5.9,1.4C181.3,56.6,181.8,65.5,172.9,72.7z"/>
</svg>
