<?xml version="1.0" encoding="utf-8"?>
<!-- Generator: Adobe Illustrator 22.0.0, SVG Export Plug-In . SVG Version: 6.00 Build 0)  -->
<svg version="1.1" id="Capa_1" xmlns="http://www.w3.org/2000/svg" xmlns:xlink="http://www.w3.org/1999/xlink" x="0px" y="0px"
	 viewBox="0 0 512 512" style="enable-background:new 0 0 512 512;" xml:space="preserve">
<style type="text/css">
	.st0{fill:#FDC9A6;}
	.st1{fill:#277BAA;}
	.st2{fill:#6CBAE5;}
	.st3{fill:#A8D0E2;}
	.st4{fill:#4799CF;}
</style>
<g>
	<path class="st0" d="M392.5,343.4L196.3,147.2L257.6,79c8.6-9.6,8.3-24.3-0.9-33.4l0,0c-9.7-9.7-25.6-9.4-35,0.6L150.4,123
		c-12.5,13.5-12.1,34.4,0.9,47.4l70.6,70.6l-128,128v34.1h296.3L392.5,343.4z"/>
	<path class="st0" d="M342.7,259.6l-12-12.1c-20-20-19.9-52.4,0.1-72.4l34.4-34.3c20-20,52.4-19.9,72.4,0.1l12,12.1
		c20,20,19.9,52.4-0.1,72.4l-34.4,34.3C395.1,279.7,362.7,279.7,342.7,259.6z"/>
</g>
<path class="st1" d="M374,133.9l82.5,82.7c12.6-19.8,10.4-46.3-6.9-63.6l-12-12.1C420.3,123.7,393.8,121.4,374,133.9z"/>
<g>
	<path class="st2" d="M373,218.9C373,218.9,373,218.9,373,218.9c-6.9,0-13.3-2.7-18.1-7.5l-12-12.1c-4.8-4.8-7.5-11.3-7.5-18.1
		c0-6.8,2.7-13.3,7.5-18.1c4.8-4.8,11.2-7.5,18.1-7.5c0,0,0,0,0,0c6.8,0,13.3,2.7,18.1,7.5l12,12.1c4.8,4.8,7.5,11.3,7.5,18.1
		c0,6.8-2.7,13.3-7.5,18.1C386.2,216.3,379.8,218.9,373,218.9z"/>
	<path class="st2" d="M415.2,261.2C415.2,261.2,415.1,261.2,415.2,261.2c-6.9,0-13.3-2.7-18.1-7.5l-12-12.1
		c-10-10-9.9-26.2,0.1-36.2c4.8-4.8,11.2-7.5,18.1-7.5c0,0,0,0,0,0c6.8,0,13.3,2.7,18.1,7.5l12,12.1c4.8,4.8,7.5,11.3,7.5,18.1
		c0,6.8-2.7,13.3-7.5,18.1C428.4,258.6,422,261.2,415.2,261.2z"/>
</g>
<polyline class="st0" points="342.7,259.6 324.3,275.2 318.4,280 294,254.6 298.7,249.6 324.3,232.5 "/>
<g>
	<path class="st3" d="M360.9,205.4l-12-12.1c-6.7-6.7-6.6-17.5,0-24.1l0,0c6.7-6.7,17.5-6.6,24.1,0l12,12.1c6.7,6.7,6.6,17.5,0,24.1
		l0,0C378.4,212.1,367.6,212,360.9,205.4z"/>
	<path class="st3" d="M403.1,247.7l-12-12.1c-6.7-6.7-6.6-17.5,0-24.1l0,0c6.7-6.7,17.5-6.6,24.1,0l12,12.1c6.7,6.7,6.6,17.5,0,24.1
		l0,0C420.5,254.4,409.7,254.3,403.1,247.7z"/>
</g>
<path class="st2" d="M0,473.6h512v-87.5c-85.3,0-85.3-51.2-170.7-51.2s-85.3,51.2-170.7,51.2c-85.3,0-85.3-51.2-170.6-51.2L0,473.6
	L0,473.6z"/>
<path class="st4" d="M0,403.2c85.3,0,85.3,51.2,170.6,51.2c85.3,0,85.3-51.2,170.7-51.2s85.3,51.2,170.7,51.2v19.3H0V403.2z"/>
</svg>
