<?xml version="1.0" encoding="utf-8"?>
<!-- Generator: Adobe Illustrator 22.0.0, SVG Export Plug-In . SVG Version: 6.00 Build 0)  -->
<svg version="1.1" id="Capa_1" xmlns="http://www.w3.org/2000/svg" xmlns:xlink="http://www.w3.org/1999/xlink" x="0px" y="0px"
	 viewBox="0 0 448 448" style="enable-background:new 0 0 448 448;" xml:space="preserve">
<style type="text/css">
	.st0{fill:#87C544;}
	.st1{fill:#743A1B;}
	.st2{fill:#A7D16F;}
</style>
<path class="st0" d="M445.7,346.3l-34.6-33.7L224,32L36.9,312.6L2.3,346.3c-3.1,3.1-3.1,8.2,0,11.3C3.9,359.2,6,360,8,360
	s4.1-0.8,5.7-2.3l24.8-24.8l19.1,38.2l-32.4,31.1c-3.2,3.1-3.3,8.1-0.2,11.3c1.6,1.6,3.7,2.5,5.8,2.5c2,0,4-0.7,5.5-2.2l31-29.8H128
	h192h60.7l29.7,29.7c1.6,1.6,3.6,2.3,5.7,2.3s4.1-0.8,5.7-2.3c3.1-3.1,3.1-8.2,0-11.3l-31.2-31.2l19.1-38.2l24.8,24.8
	c1.6,1.6,3.6,2.3,5.6,2.3s4.1-0.8,5.7-2.3C448.8,354.5,448.8,349.5,445.7,346.3z"/>
<polygon class="st1" points="320,384 128,384 224,128 "/>
<g>
	<path class="st2" d="M128,384v-18.7c0-29-11.5-56.8-32-77.3l128-160L128,384z"/>
	<path class="st2" d="M352,288c-20.5,20.5-32,48.2-32,77.3V384l-96-256L352,288z"/>
</g>
</svg>
